<svg width="14" height="16" viewBox="0 0 14 16" fill="none" xmlns="http://www.w3.org/2000/svg">
<path fill-rule="evenodd" clip-rule="evenodd" d="M13.6947 8.293C13.8822 8.48053 13.9875 8.73484 13.9875 9C13.9875 9.26516 13.8822 9.51947 13.6947 9.707L7.69471 15.707C7.50718 15.8945 7.25288 15.9998 6.98771 15.9998C6.72255 15.9998 6.46824 15.8945 6.28071 15.707L0.280712 9.707C0.0985541 9.5184 -0.00224027 9.2658 3.8147e-05 9.0036C0.00231657 8.7414 0.107486 8.49059 0.292894 8.30518C0.478302 8.11977 0.729115 8.0146 0.991312 8.01233C1.25351 8.01005 1.50611 8.11084 1.69471 8.293L5.98771 12.586L5.98771 1C5.98771 0.734784 6.09307 0.480429 6.28061 0.292892C6.46814 0.105356 6.7225 0 6.98771 0C7.25293 0 7.50728 0.105356 7.69482 0.292892C7.88236 0.480429 7.98771 0.734784 7.98771 1L7.98771 12.586L12.2807 8.293C12.4682 8.10553 12.7225 8.00021 12.9877 8.00021C13.2529 8.00021 13.5072 8.10553 13.6947 8.293Z" fill=""/>
</svg>
