<svg width="12" height="12" viewBox="0 0 12 12" fill="none" xmlns="http://www.w3.org/2000/svg">
<path d="M0.846969 11.677C0.679134 11.6774 0.514954 11.628 0.375268 11.5349C0.235581 11.4419 0.126684 11.3095 0.0623984 11.1544C-0.00188746 10.9994 -0.0186646 10.8288 0.0141969 10.6642C0.0470583 10.4996 0.128076 10.3485 0.246969 10.23L10.23 0.247002C10.3891 0.0878718 10.6049 -0.00152588 10.83 -0.00152588C11.055 -0.00152588 11.2708 0.0878718 11.43 0.247002C11.5891 0.406132 11.6785 0.621958 11.6785 0.847002C11.6785 1.07205 11.5891 1.28787 11.43 1.447L1.44697 11.43C1.36817 11.5087 1.27459 11.571 1.17162 11.6134C1.06865 11.6558 0.958321 11.6774 0.846969 11.677Z" fill="#C5C4C9"/>
<path d="M10.83 11.677C10.6054 11.677 10.3899 11.5878 10.2311 11.4289C10.0722 11.2701 9.98301 11.0546 9.98301 10.83V1.695H0.847012C0.622241 1.695 0.406676 1.60571 0.247739 1.44677C0.0888018 1.28784 -0.000488281 1.07227 -0.000488281 0.8475C-0.000488281 0.622729 0.0888018 0.407164 0.247739 0.248227C0.406676 0.08929 0.622241 0 0.847012 0H10.83C11.0546 0 11.2701 0.0892369 11.4289 0.24808C11.5878 0.406924 11.677 0.622362 11.677 0.847V10.83C11.677 11.0546 11.5878 11.2701 11.4289 11.4289C11.2701 11.5878 11.0546 11.677 10.83 11.677Z" fill="#C5C4C9"/>
</svg>
