<svg width="24" height="24" viewBox="0 0 24 24" fill="none" xmlns="http://www.w3.org/2000/svg">
<path d="M4.53613 11.4649L11.4301 4.56994C11.9167 4.07789 12.4956 3.68688 13.1338 3.41938C13.772 3.15188 14.4567 3.01318 15.1487 3.01125C15.8407 3.00932 16.5262 3.1442 17.1658 3.40813C17.8055 3.67207 18.3866 4.05984 18.8759 4.54917C19.3652 5.0385 19.7529 5.61971 20.0167 6.2594C20.2806 6.89909 20.4153 7.58462 20.4133 8.27658C20.4113 8.96854 20.2725 9.65328 20.0049 10.2914C19.7373 10.9295 19.3462 11.5085 18.8541 11.9949L10.9001 19.9499C10.2437 20.6064 9.35344 20.9751 8.42513 20.9751C7.49683 20.9751 6.60654 20.6064 5.95013 19.9499C5.29372 19.2935 4.92495 18.4032 4.92495 17.4749C4.92495 16.5466 5.29372 15.6563 5.95013 14.9999L13.9061 7.04494C14.2363 6.72623 14.6783 6.54993 15.1372 6.55401C15.596 6.55809 16.0349 6.74222 16.3593 7.06675C16.6837 7.39128 16.8677 7.83024 16.8716 8.28909C16.8755 8.74793 16.699 9.18995 16.3801 9.51994L9.48513 16.4139" stroke="#000" stroke-width="2" stroke-linecap="round" stroke-linejoin="round"/>
</svg>
