<svg width="24" height="19" viewBox="0 0 24 19" fill="none" xmlns="http://www.w3.org/2000/svg">
<path d="M0.656729 8.52972C0.289003 8.91623 0.289445 9.52335 0.657734 9.90933L0.687 9.94L8.47989 17.7329C8.87042 18.1234 9.50358 18.1234 9.89411 17.7329L9.91963 17.7074C10.3103 17.3167 10.3101 16.6834 9.91937 16.2929L5.55063 11.9274C4.9203 11.2975 5.36639 10.22 6.25747 10.22L22.906 10.22C23.4583 10.22 23.906 9.77228 23.906 9.22V9.22C23.906 8.66771 23.4583 8.22 22.906 8.22L6.25772 8.22C5.36674 8.22 4.92061 7.14271 5.55071 6.51279L9.91768 2.14711C10.3083 1.7566 10.3084 1.12335 9.91779 0.732787L9.89211 0.707107C9.50158 0.316583 8.86842 0.316582 8.47789 0.707107L0.685 8.5L0.656729 8.52972Z" fill=""/>
</svg>
