<svg width="16" height="9" viewBox="0 0 16 9" fill="none" xmlns="http://www.w3.org/2000/svg">
<g opacity="0.3" clip-path="url(#clip0_433_7123)">
<path d="M7.5301 6.01295L13.2221 0.312954C13.3216 0.212845 13.44 0.1334 13.5703 0.0791893C13.7007 0.0249782 13.8404 -0.00292969 13.9816 -0.00292969C14.1228 -0.00292969 14.2625 0.0249782 14.3929 0.0791893C14.5232 0.1334 14.6416 0.212845 14.7411 0.312954C14.9414 0.515992 15.0537 0.789738 15.0537 1.07495C15.0537 1.36017 14.9414 1.63392 14.7411 1.83695L8.2911 8.29095C8.09528 8.48614 7.83174 8.59829 7.55531 8.60407C7.27889 8.60984 7.01089 8.50879 6.8071 8.32195L0.313097 1.84095C0.116261 1.63843 0.00693893 1.36665 0.00871658 1.08424C0.0104942 0.80183 0.123231 0.531441 0.322599 0.331416C0.521968 0.131391 0.791985 0.017767 1.07439 0.0150614C1.35679 0.0123557 1.62893 0.120785 1.8321 0.316954L7.5301 6.01295Z" fill=""/>
</g>
<defs>
<clipPath id="clip0_433_7123">
<rect width="15.054" height="8.607" fill=""/>
</clipPath>
</defs>
</svg>
