<svg width="20" height="20" viewBox="0 0 20 20" fill="none" xmlns="http://www.w3.org/2000/svg">
<path d="M6.46021 2.08398C6.46021 1.91822 6.39436 1.75925 6.27715 1.64204C6.15994 1.52483 6.00097 1.45898 5.83521 1.45898C5.66945 1.45898 5.51048 1.52483 5.39327 1.64204C5.27606 1.75925 5.21021 1.91822 5.21021 2.08398V3.40065C4.01021 3.49648 3.22354 3.73148 2.64521 4.31065C2.06604 4.88898 1.83104 5.67648 1.73438 6.87565H18.2694C18.1727 5.67565 17.9377 4.88898 17.3585 4.31065C16.7802 3.73148 15.9927 3.49648 14.7935 3.39982V2.08398C14.7935 1.91822 14.7277 1.75925 14.6105 1.64204C14.4933 1.52483 14.3343 1.45898 14.1685 1.45898C14.0028 1.45898 13.8438 1.52483 13.7266 1.64204C13.6094 1.75925 13.5435 1.91822 13.5435 2.08398V3.34482C12.9894 3.33398 12.3677 3.33398 11.6685 3.33398H8.33521C7.63604 3.33398 7.01438 3.33398 6.46021 3.34482V2.08398Z" fill="#1F5764"/>
<path fill-rule="evenodd" clip-rule="evenodd" d="M1.66797 10.001C1.66797 9.30181 1.66797 8.68014 1.6788 8.12598H18.3238C18.3346 8.68014 18.3346 9.30181 18.3346 10.001V11.6676C18.3346 14.8101 18.3346 16.3818 17.358 17.3576C16.3821 18.3343 14.8105 18.3343 11.668 18.3343H8.33464C5.19214 18.3343 3.62047 18.3343 2.64464 17.3576C1.66797 16.3818 1.66797 14.8101 1.66797 11.6676V10.001ZM14.168 11.6676C14.389 11.6676 14.6009 11.5798 14.7572 11.4236C14.9135 11.2673 15.0013 11.0553 15.0013 10.8343C15.0013 10.6133 14.9135 10.4013 14.7572 10.2451C14.6009 10.0888 14.389 10.001 14.168 10.001C13.947 10.001 13.735 10.0888 13.5787 10.2451C13.4224 10.4013 13.3346 10.6133 13.3346 10.8343C13.3346 11.0553 13.4224 11.2673 13.5787 11.4236C13.735 11.5798 13.947 11.6676 14.168 11.6676ZM14.168 15.001C14.389 15.001 14.6009 14.9132 14.7572 14.7569C14.9135 14.6006 15.0013 14.3887 15.0013 14.1676C15.0013 13.9466 14.9135 13.7347 14.7572 13.5784C14.6009 13.4221 14.389 13.3343 14.168 13.3343C13.947 13.3343 13.735 13.4221 13.5787 13.5784C13.4224 13.7347 13.3346 13.9466 13.3346 14.1676C13.3346 14.3887 13.4224 14.6006 13.5787 14.7569C13.735 14.9132 13.947 15.001 14.168 15.001ZM10.8346 10.8343C10.8346 11.0553 10.7468 11.2673 10.5906 11.4236C10.4343 11.5798 10.2223 11.6676 10.0013 11.6676C9.78029 11.6676 9.56833 11.5798 9.41205 11.4236C9.25577 11.2673 9.16797 11.0553 9.16797 10.8343C9.16797 10.6133 9.25577 10.4013 9.41205 10.2451C9.56833 10.0888 9.78029 10.001 10.0013 10.001C10.2223 10.001 10.4343 10.0888 10.5906 10.2451C10.7468 10.4013 10.8346 10.6133 10.8346 10.8343ZM10.8346 14.1676C10.8346 14.3887 10.7468 14.6006 10.5906 14.7569C10.4343 14.9132 10.2223 15.001 10.0013 15.001C9.78029 15.001 9.56833 14.9132 9.41205 14.7569C9.25577 14.6006 9.16797 14.3887 9.16797 14.1676C9.16797 13.9466 9.25577 13.7347 9.41205 13.5784C9.56833 13.4221 9.78029 13.3343 10.0013 13.3343C10.2223 13.3343 10.4343 13.4221 10.5906 13.5784C10.7468 13.7347 10.8346 13.9466 10.8346 14.1676ZM5.83464 11.6676C6.05565 11.6676 6.26761 11.5798 6.42389 11.4236C6.58017 11.2673 6.66797 11.0553 6.66797 10.8343C6.66797 10.6133 6.58017 10.4013 6.42389 10.2451C6.26761 10.0888 6.05565 10.001 5.83464 10.001C5.61362 10.001 5.40166 10.0888 5.24538 10.2451C5.0891 10.4013 5.0013 10.6133 5.0013 10.8343C5.0013 11.0553 5.0891 11.2673 5.24538 11.4236C5.40166 11.5798 5.61362 11.6676 5.83464 11.6676ZM5.83464 15.001C6.05565 15.001 6.26761 14.9132 6.42389 14.7569C6.58017 14.6006 6.66797 14.3887 6.66797 14.1676C6.66797 13.9466 6.58017 13.7347 6.42389 13.5784C6.26761 13.4221 6.05565 13.3343 5.83464 13.3343C5.61362 13.3343 5.40166 13.4221 5.24538 13.5784C5.0891 13.7347 5.0013 13.9466 5.0013 14.1676C5.0013 14.3887 5.0891 14.6006 5.24538 14.7569C5.40166 14.9132 5.61362 15.001 5.83464 15.001Z" fill="#1F5764"/>
</svg>
