<svg width="24" height="22" viewBox="0 0 24 22" fill="none" xmlns="http://www.w3.org/2000/svg">
<path d="M10.9021 17.169C11.0157 17.2823 11.1059 17.4168 11.1674 17.565C11.2289 17.7131 11.2606 17.8719 11.2606 18.0323C11.2606 18.1927 11.2289 18.3516 11.1674 18.4997C11.1059 18.6478 11.0157 18.7824 10.9021 18.8956L10.3821 19.4156C9.83011 19.9697 9.17376 20.4088 8.451 20.7076C7.72824 21.0064 6.95341 21.1589 6.17133 21.1564C4.99354 21.1568 3.8421 20.8078 2.86269 20.1536C1.88327 19.4995 1.11989 18.5695 0.66912 17.4814C0.21835 16.3933 0.100445 15.1959 0.330324 14.0408C0.560203 12.8856 1.12754 11.8246 1.96055 10.992L5.48984 7.46272C6.24053 6.71215 7.17818 6.17586 8.20574 5.90937C9.23329 5.64289 10.3134 5.6559 11.3342 5.94705C12.3551 6.2382 13.2796 6.79691 14.0119 7.56535C14.7443 8.33378 15.258 9.284 15.4998 10.3176C15.5399 10.4748 15.5482 10.6384 15.5242 10.7988C15.5002 10.9592 15.4445 11.1132 15.3602 11.2518C15.276 11.3903 15.1649 11.5107 15.0335 11.6058C14.9021 11.7009 14.7531 11.7688 14.5951 11.8056C14.4372 11.8424 14.2735 11.8473 14.1136 11.8199C13.9537 11.7926 13.8009 11.7337 13.6641 11.6466C13.5273 11.5594 13.4093 11.4459 13.317 11.3126C13.2246 11.1792 13.1598 11.0288 13.1263 10.8701C12.9828 10.26 12.679 9.69922 12.2462 9.24583C11.8134 8.79244 11.2673 8.46287 10.6645 8.2912C10.0617 8.11952 9.42393 8.11197 8.8172 8.26932C8.21047 8.42667 7.65677 8.74322 7.21336 9.18623L3.68406 12.7155C3.1921 13.2071 2.85696 13.8335 2.72103 14.5155C2.5851 15.1976 2.65447 15.9046 2.92039 16.5472C3.1863 17.1898 3.63681 17.7391 4.21493 18.1257C4.79305 18.5123 5.47283 18.7187 6.16828 18.7189C6.63036 18.7202 7.08812 18.6298 7.51505 18.4531C7.94199 18.2763 8.32963 18.0166 8.65555 17.689L9.17453 17.169C9.28777 17.0553 9.42238 16.965 9.57061 16.9034C9.71885 16.8418 9.87779 16.8101 10.0383 16.8101C10.1988 16.8101 10.3578 16.8418 10.506 16.9034C10.6543 16.965 10.7889 17.0553 10.9021 17.169ZM22.0384 2.58772C20.9214 1.47105 19.4066 0.84375 17.8271 0.84375C16.2477 0.84375 14.7329 1.47105 13.6159 2.58772L13.0969 3.1067C12.8679 3.33566 12.7393 3.64619 12.7393 3.96998C12.7393 4.29378 12.8679 4.60431 13.0969 4.83326C13.3258 5.06222 13.6364 5.19085 13.9602 5.19085C14.2839 5.19085 14.5945 5.06222 14.8234 4.83326L15.3434 4.31327C16.0034 3.65333 16.8984 3.28259 17.8317 3.28259C18.765 3.28259 19.6601 3.65333 20.32 4.31327C20.9799 4.9732 21.3507 5.86826 21.3507 6.80155C21.3507 7.73483 20.9799 8.62989 20.32 9.28983L16.7846 12.814C16.4588 13.1417 16.0711 13.4015 15.6442 13.5782C15.2172 13.755 14.7594 13.8453 14.2973 13.8439C13.5046 13.8433 12.7354 13.575 12.1143 13.0824C11.4932 12.5898 11.0568 11.9019 10.8757 11.1301C10.8024 10.8153 10.6071 10.5424 10.3326 10.3715C10.0582 10.2007 9.72707 10.1459 9.41219 10.2191C9.0973 10.2924 8.82442 10.4877 8.65357 10.7622C8.48273 11.0367 8.42791 11.3678 8.50117 11.6826C8.80698 12.9896 9.54534 14.155 10.5965 14.9897C11.6477 15.8244 12.95 16.2796 14.2923 16.2814H14.2973C15.0798 16.2835 15.8549 16.1305 16.5778 15.8312C17.3008 15.5319 17.9572 15.0922 18.5091 14.5376L22.0384 11.0083C22.5914 10.4554 23.0301 9.79903 23.3293 9.07662C23.6286 8.35422 23.7826 7.57994 23.7826 6.79799C23.7826 6.01605 23.6286 5.24176 23.3293 4.51936C23.0301 3.79695 22.5914 3.14058 22.0384 2.58772Z" fill="white"/>
</svg>
