<svg width="22" height="20" viewBox="0 0 22 20" fill="none" xmlns="http://www.w3.org/2000/svg">
<path d="M12.305 19.5L11 18.75L14 13.5H18.5C18.8978 13.5 19.2794 13.342 19.5607 13.0607C19.842 12.7794 20 12.3978 20 12V3C20 2.60218 19.842 2.22064 19.5607 1.93934C19.2794 1.65804 18.8978 1.5 18.5 1.5H3.5C3.10218 1.5 2.72064 1.65804 2.43934 1.93934C2.15804 2.22064 2 2.60218 2 3V12C2 12.3978 2.15804 12.7794 2.43934 13.0607C2.72064 13.342 3.10218 13.5 3.5 13.5H10.25V15H3.5C2.70435 15 1.94129 14.6839 1.37868 14.1213C0.816071 13.5587 0.5 12.7956 0.5 12V3C0.5 2.20435 0.816071 1.44129 1.37868 0.87868C1.94129 0.31607 2.70435 0 3.5 0H18.5C19.2956 0 20.0587 0.31607 20.6213 0.87868C21.1839 1.44129 21.5 2.20435 21.5 3V12C21.5 12.7956 21.1839 13.5587 20.6213 14.1213C20.0587 14.6839 19.2956 15 18.5 15H14.87L12.305 19.5Z" fill=""/>
</svg>
