<svg width="24" height="25" viewBox="0 0 24 25" fill="none" xmlns="http://www.w3.org/2000/svg">
<path d="M4 18.0151H6V22.0961L11.101 18.0151H16C17.103 18.0151 18 17.1181 18 16.0151V8.01514C18 6.91214 17.103 6.01514 16 6.01514H4C2.897 6.01514 2 6.91214 2 8.01514V16.0151C2 17.1181 2.897 18.0151 4 18.0151Z" fill=""/>
<path d="M20 2.01514H8C6.897 2.01514 6 2.91214 6 4.01514H18C19.103 4.01514 20 4.91214 20 6.01514V14.0151C21.103 14.0151 22 13.1181 22 12.0151V4.01514C22 2.91214 21.103 2.01514 20 2.01514Z" fill=""/>
</svg>
