<svg width="12" height="12" viewBox="0 0 12 12" fill="none" xmlns="http://www.w3.org/2000/svg">
<path d="M11.4213 1.9932C11.5169 1.901 11.5931 1.79069 11.6456 1.66871C11.698 1.54673 11.7257 1.41552 11.7269 1.28275C11.7281 1.14997 11.7029 1.01828 11.6527 0.895356C11.6024 0.772437 11.5282 0.66075 11.4344 0.566814C11.3405 0.472877 11.2289 0.398572 11.1061 0.348233C10.9832 0.297894 10.8515 0.27253 10.7187 0.273621C10.586 0.274712 10.4547 0.302235 10.3327 0.354586C10.2107 0.406937 10.1003 0.483066 10.008 0.578532L6 4.5852L1.99333 0.578532C1.90178 0.480283 1.79138 0.40148 1.66871 0.346824C1.54605 0.292168 1.41363 0.262779 1.27936 0.26041C1.14509 0.25804 1.01172 0.28274 0.8872 0.333035C0.762682 0.38333 0.649571 0.458189 0.554612 0.553147C0.459654 0.648106 0.384795 0.761217 0.3345 0.885734C0.284205 1.01025 0.259505 1.14362 0.261874 1.2779C0.264243 1.41217 0.293633 1.54458 0.348289 1.66725C0.402945 1.78991 0.481748 1.90032 0.579997 1.99187L4.584 5.99987L0.57733 10.0065C0.40069 10.1961 0.304526 10.4468 0.309097 10.7059C0.313667 10.965 0.418617 11.2121 0.601834 11.3954C0.785052 11.5786 1.03223 11.6835 1.2913 11.6881C1.55037 11.6927 1.8011 11.5965 1.99066 11.4199L6 7.4132L10.0067 11.4212C10.1962 11.5978 10.447 11.694 10.706 11.6894C10.9651 11.6849 11.2123 11.5799 11.3955 11.3967C11.5787 11.2135 11.6837 10.9663 11.6882 10.7072C11.6928 10.4482 11.5966 10.1974 11.42 10.0079L7.416 5.99987L11.4213 1.9932Z" fill="#FF1111"/>
</svg>
