<svg width="28" height="28" viewBox="0 0 28 28" fill="none" xmlns="http://www.w3.org/2000/svg">
<path d="M16.5667 3.35416C15.1356 3.35416 13.7632 3.92264 12.7513 4.93456C11.7394 5.94647 11.1709 7.31893 11.1709 8.74999V11.7542H8.28337C8.13871 11.7542 8.02087 11.8708 8.02087 12.0167V15.9833C8.02087 16.128 8.13754 16.2458 8.28337 16.2458H11.1709V24.3833C11.1709 24.528 11.2875 24.6458 11.4334 24.6458H15.4C15.5447 24.6458 15.6625 24.5292 15.6625 24.3833V16.2458H18.5757C18.6959 16.2458 18.8009 16.1642 18.83 16.0475L19.8217 12.0808C19.8315 12.0421 19.8323 12.0017 19.824 11.9626C19.8158 11.9236 19.7988 11.8869 19.7743 11.8554C19.7498 11.8239 19.7184 11.7984 19.6825 11.7809C19.6467 11.7633 19.6073 11.7542 19.5674 11.7542H15.6625V8.74999C15.6625 8.63125 15.6859 8.51368 15.7314 8.40398C15.7768 8.29428 15.8434 8.19461 15.9274 8.11065C16.0113 8.02669 16.111 7.96009 16.2207 7.91465C16.3304 7.86921 16.448 7.84582 16.5667 7.84582H19.6C19.7447 7.84582 19.8625 7.72916 19.8625 7.58332V3.61666C19.8625 3.47199 19.7459 3.35416 19.6 3.35416H16.5667Z" fill=""/>
</svg>
