<svg width="28" height="28" viewBox="0 0 28 28" fill="none" xmlns="http://www.w3.org/2000/svg">
<path d="M24.0899 12.0969H14.2106V16.1574H19.8543C19.611 17.4699 18.8727 18.5801 17.7598 19.3238C16.8192 19.9527 15.6188 20.3246 14.2078 20.3246C11.4762 20.3246 9.16565 18.4789 8.33987 15.9988C8.13206 15.3699 8.01174 14.6973 8.01174 14.0055C8.01174 13.3137 8.13206 12.641 8.33987 12.0121C9.16838 9.53477 11.4789 7.68906 14.2106 7.68906C15.75 7.68906 17.1309 8.21953 18.2192 9.25859L21.227 6.24805C19.4086 4.55273 17.0379 3.51367 14.2106 3.51367C10.1117 3.51367 6.56526 5.86523 4.83987 9.29414C4.12893 10.7105 3.72424 12.3129 3.72424 14.0082C3.72424 15.7035 4.12893 17.3031 4.83987 18.7195C6.56526 22.1484 10.1117 24.5 14.2106 24.5C17.0434 24.5 19.4168 23.5594 21.1504 21.957C23.1328 20.1305 24.2785 17.4398 24.2785 14.2434C24.2785 13.4996 24.2129 12.7859 24.0899 12.0969Z" fill="#E34033"/>
</svg>
