<svg width="18" height="18" viewBox="0 0 18 18" fill="none" xmlns="http://www.w3.org/2000/svg">
<path d="M8.95829 14.015C9.24996 14.015 9.49663 13.9141 9.69829 13.7125C9.89996 13.5108 10.0005 13.2644 9.99996 12.9733C9.99996 12.6816 9.8994 12.435 9.69829 12.2333C9.49718 12.0316 9.25051 11.9311 8.95829 11.9316C8.66663 11.9316 8.42024 12.0325 8.21913 12.2341C8.01801 12.4358 7.91718 12.6822 7.91663 12.9733C7.91663 13.265 8.01746 13.5116 8.21913 13.7133C8.42079 13.915 8.66718 14.0155 8.95829 14.015ZM8.20829 10.8066H9.74996C9.74996 10.3483 9.80218 9.9872 9.90663 9.72331C10.0111 9.45942 10.3061 9.09831 10.7916 8.63997C11.1527 8.27886 11.4375 7.93497 11.6458 7.60831C11.8541 7.28164 11.9583 6.88942 11.9583 6.43164C11.9583 5.65386 11.6736 5.05664 11.1041 4.63997C10.5347 4.22331 9.86107 4.01497 9.08329 4.01497C8.29163 4.01497 7.64913 4.22331 7.15579 4.63997C6.66246 5.05664 6.31885 5.55664 6.12496 6.13997L7.49996 6.68164C7.5694 6.43164 7.72579 6.16081 7.96913 5.86914C8.21246 5.57747 8.58385 5.43164 9.08329 5.43164C9.52774 5.43164 9.86107 5.55331 10.0833 5.79664C10.3055 6.03997 10.4166 6.3072 10.4166 6.59831C10.4166 6.87609 10.3333 7.13664 10.1666 7.37997C9.99996 7.62331 9.79163 7.84886 9.54163 8.05664C8.93051 8.59831 8.55551 9.00803 8.41663 9.28581C8.27774 9.56358 8.20829 10.0705 8.20829 10.8066ZM8.99996 17.3483C7.84718 17.3483 6.76385 17.1294 5.74996 16.6916C4.73607 16.2539 3.85413 15.6603 3.10413 14.9108C2.35413 14.1608 1.76051 13.2789 1.32329 12.265C0.886071 11.2511 0.667182 10.1678 0.666626 9.01497C0.666626 7.8622 0.885515 6.77886 1.32329 5.76497C1.76107 4.75109 2.35468 3.86914 3.10413 3.11914C3.85413 2.36914 4.73607 1.77553 5.74996 1.33831C6.76385 0.901085 7.84718 0.682196 8.99996 0.681641C10.1527 0.681641 11.2361 0.90053 12.25 1.33831C13.2638 1.77609 14.1458 2.3697 14.8958 3.11914C15.6458 3.86914 16.2397 4.75109 16.6775 5.76497C17.1152 6.77886 17.3338 7.8622 17.3333 9.01497C17.3333 10.1678 17.1144 11.2511 16.6766 12.265C16.2388 13.2789 15.6452 14.1608 14.8958 14.9108C14.1458 15.6608 13.2638 16.2547 12.25 16.6925C11.2361 17.1303 10.1527 17.3489 8.99996 17.3483Z" fill=""/>
</svg>
