<svg width="18" height="19" viewBox="0 0 18 19" fill="none" xmlns="http://www.w3.org/2000/svg">
<path d="M9 18.5151C6.7 18.5151 4.69567 17.7525 2.987 16.2271C1.27833 14.7018 0.299333 12.7978 0.05 10.5151H2.1C2.33333 12.2485 3.10433 13.6818 4.413 14.8151C5.72167 15.9485 7.25067 16.5151 9 16.5151C10.95 16.5151 12.6043 15.8358 13.963 14.4771C15.3217 13.1185 16.0007 11.4645 16 9.51514C16 7.56514 15.3207 5.9108 13.962 4.55214C12.6033 3.19347 10.9493 2.51447 9 2.51514C7.85 2.51514 6.775 2.7818 5.775 3.31514C4.775 3.84847 3.93333 4.5818 3.25 5.51514H6V7.51514H0V1.51514H2V3.86514C2.85 2.79847 3.88767 1.97347 5.113 1.39014C6.33833 0.806803 7.634 0.515137 9 0.515137C10.25 0.515137 11.421 0.752803 12.513 1.22814C13.605 1.70347 14.555 2.3448 15.363 3.15214C16.171 3.9608 16.8127 4.9108 17.288 6.00214C17.7633 7.09347 18.0007 8.26447 18 9.51514C18 10.7651 17.7623 11.9361 17.287 13.0281C16.8117 14.1201 16.1703 15.0701 15.363 15.8781C14.5543 16.6861 13.6043 17.3278 12.513 17.8031C11.4217 18.2785 10.2507 18.5158 9 18.5151ZM11.8 13.7151L8 9.91514V4.51514H10V9.11514L13.2 12.3151L11.8 13.7151Z" fill=""/>
</svg>
