<svg width="18" height="19" viewBox="0 0 18 19" fill="none" xmlns="http://www.w3.org/2000/svg">
<path d="M17.4387 9.57638C17.3645 9.57681 17.291 9.56259 17.2223 9.53454C17.1537 9.50649 17.0912 9.46516 17.0385 9.41293L8.98439 1.35314L0.930233 9.41293C0.822412 9.50526 0.683718 9.55351 0.541868 9.54803C0.400018 9.54255 0.265459 9.48375 0.165081 9.38337C0.0647034 9.283 0.00589939 9.14844 0.000420339 9.00659C-0.00505871 8.86474 0.0431907 8.72604 0.135527 8.61822L8.58985 0.163897C8.69545 0.058922 8.8383 0 8.9872 0C9.1361 0 9.27895 0.058922 9.38456 0.163897L17.8389 8.61822C17.9164 8.69734 17.969 8.79757 17.9899 8.90638C18.0108 9.01518 17.9992 9.12774 17.9565 9.22997C17.9138 9.33221 17.8419 9.4196 17.7498 9.48121C17.6577 9.54282 17.5495 9.57592 17.4387 9.57638Z" fill=""/>
<path d="M8.98465 3.2583L2.22119 10.0443V16.9036C2.22119 17.2025 2.33995 17.4893 2.55135 17.7007C2.76275 17.9121 3.04947 18.0308 3.34843 18.0308H7.29379V12.3946H10.6755V18.0308H14.6209C14.9198 18.0308 15.2065 17.9121 15.4179 17.7007C15.6293 17.4893 15.7481 17.2025 15.7481 16.9036V10.0049L8.98465 3.2583Z" fill=""/>
</svg>
