<svg width="16" height="13" viewBox="0 0 16 13" fill="none" xmlns="http://www.w3.org/2000/svg">
<path d="M10.1321 11.398L10.1315 11.3985C9.71209 11.7112 9.33128 11.9905 8.96227 12.1941C8.59371 12.3974 8.28022 12.5 8 12.5C7.71989 12.5 7.40645 12.3973 7.03773 12.1939C6.66858 11.9902 6.28781 11.7111 5.86816 11.399C5.63651 11.2265 5.40012 11.0545 5.16186 10.8811C4.15846 10.1508 3.12183 9.39632 2.26635 8.4871C1.22489 7.38022 0.5 6.08949 0.5 4.41913C0.5 2.78632 1.47782 1.3953 2.84806 0.804153C4.19345 0.223732 5.98027 0.393067 7.64984 2.03105L7.99996 2.37454L8.35012 2.03109C10.0197 0.39348 11.8065 0.224284 13.1519 0.804803C14.5222 1.39604 15.5 2.78708 15.5 4.41989C15.5 6.08989 14.7753 7.38062 13.7339 8.48739C12.8771 9.39813 11.8381 10.1536 10.8329 10.8847C10.5965 11.0566 10.362 11.2271 10.1321 11.398Z" stroke="" fill=""/>
</svg>
