<svg width="18" height="16" viewBox="0 0 18 16" fill="none" xmlns="http://www.w3.org/2000/svg">
<path d="M1.40625 0.702637C0.938672 0.702637 0.5625 1.07881 0.5625 1.54639V3.23389C0.5625 3.70146 0.938672 4.07764 1.40625 4.07764H3.09375C3.56133 4.07764 3.9375 3.70146 3.9375 3.23389V1.54639C3.9375 1.07881 3.56133 0.702637 3.09375 0.702637H1.40625ZM6.75 1.26514C6.12773 1.26514 5.625 1.76787 5.625 2.39014C5.625 3.0124 6.12773 3.51514 6.75 3.51514H16.875C17.4973 3.51514 18 3.0124 18 2.39014C18 1.76787 17.4973 1.26514 16.875 1.26514H6.75ZM6.75 6.89014C6.12773 6.89014 5.625 7.39287 5.625 8.01514C5.625 8.6374 6.12773 9.14014 6.75 9.14014H16.875C17.4973 9.14014 18 8.6374 18 8.01514C18 7.39287 17.4973 6.89014 16.875 6.89014H6.75ZM6.75 12.5151C6.12773 12.5151 5.625 13.0179 5.625 13.6401C5.625 14.2624 6.12773 14.7651 6.75 14.7651H16.875C17.4973 14.7651 18 14.2624 18 13.6401C18 13.0179 17.4973 12.5151 16.875 12.5151H6.75ZM0.5625 7.17139V8.85889C0.5625 9.32646 0.938672 9.70264 1.40625 9.70264H3.09375C3.56133 9.70264 3.9375 9.32646 3.9375 8.85889V7.17139C3.9375 6.70381 3.56133 6.32764 3.09375 6.32764H1.40625C0.938672 6.32764 0.5625 6.70381 0.5625 7.17139ZM1.40625 11.9526C0.938672 11.9526 0.5625 12.3288 0.5625 12.7964V14.4839C0.5625 14.9515 0.938672 15.3276 1.40625 15.3276H3.09375C3.56133 15.3276 3.9375 14.9515 3.9375 14.4839V12.7964C3.9375 12.3288 3.56133 11.9526 3.09375 11.9526H1.40625Z" fill=""/>
</svg>
