<svg width="16" height="23" viewBox="0 0 16 23" fill="none" xmlns="http://www.w3.org/2000/svg">
<g opacity="1">
<path d="M8 0C3.5835 0 0 3.2255 0 7.2C0 13.6 8 22.4 8 22.4C8 22.4 16 13.6 16 7.2C16 3.2255 12.4165 0 8 0ZM8 11.2C7.3671 11.2 6.74841 11.0123 6.22218 10.6607C5.69594 10.3091 5.28579 9.80931 5.04359 9.22459C4.80138 8.63986 4.73801 7.99645 4.86149 7.37571C4.98496 6.75497 5.28973 6.18479 5.73726 5.73726C6.18479 5.28973 6.75497 4.98496 7.37571 4.86149C7.99645 4.73801 8.63986 4.80138 9.22459 5.04358C9.80931 5.28578 10.3091 5.69594 10.6607 6.22217C11.0123 6.74841 11.2 7.3671 11.2 8C11.1991 8.84841 10.8616 9.6618 10.2617 10.2617C9.6618 10.8616 8.84841 11.1991 8 11.2Z" fill=""/>
</g>
</svg>
