<svg width="15" height="20" viewBox="0 0 15 20" fill="none" xmlns="http://www.w3.org/2000/svg">
<path d="M1.875 19.6875C1.35938 19.6875 0.917814 19.5037 0.550314 19.1362C0.182814 18.7687 -0.000623408 18.3275 1.59168e-06 17.8125V8.4375C1.59168e-06 7.92187 0.183751 7.48031 0.551251 7.11281C0.918751 6.74531 1.36 6.56187 1.875 6.5625H2.8125V4.6875C2.8125 3.39062 3.26969 2.285 4.18406 1.37063C5.09844 0.45625 6.20375 -0.000624359 7.5 6.40369e-07C8.79688 6.40369e-07 9.9025 0.457188 10.8169 1.37156C11.7312 2.28594 12.1881 3.39125 12.1875 4.6875V6.5625H13.125C13.6406 6.5625 14.0822 6.74625 14.4497 7.11375C14.8172 7.48125 15.0006 7.9225 15 8.4375V17.8125C15 18.3281 14.8162 18.7697 14.4487 19.1372C14.0812 19.5047 13.64 19.6881 13.125 19.6875H1.875ZM7.5 15C8.01562 15 8.45719 14.8162 8.82469 14.4487C9.19219 14.0812 9.37562 13.64 9.375 13.125C9.375 12.6094 9.19125 12.1678 8.82375 11.8003C8.45625 11.4328 8.015 11.2494 7.5 11.25C6.98438 11.25 6.54281 11.4337 6.17531 11.8012C5.80781 12.1687 5.62438 12.61 5.625 13.125C5.625 13.6406 5.80875 14.0822 6.17625 14.4497C6.54375 14.8172 6.985 15.0006 7.5 15ZM4.6875 6.5625H10.3125V4.6875C10.3125 3.90625 10.0391 3.24219 9.49219 2.69531C8.94531 2.14844 8.28125 1.875 7.5 1.875C6.71875 1.875 6.05469 2.14844 5.50781 2.69531C4.96094 3.24219 4.6875 3.90625 4.6875 4.6875V6.5625Z" fill="#3E8C9A"/>
</svg>
