<svg width="15" height="17" viewBox="0 0 15 17" fill="none" xmlns="http://www.w3.org/2000/svg">
<g clip-path="url(#clip0_313_3967)">
<path d="M7.11106 0C8.54619 0.00158812 9.92208 0.572395 10.9369 1.58719C11.9517 2.60198 12.5225 3.97787 12.5241 5.413V7.566C12.5241 7.57876 12.5268 7.59136 12.5321 7.603L13.8111 10.48C14.0153 10.8537 14.1543 11.2595 14.2221 11.68C14.2529 12.0984 14.1458 12.5154 13.9171 12.8672C13.6885 13.219 13.3509 13.4862 12.9561 13.628C12.5442 13.7369 12.1167 13.7748 11.6921 13.74H2.53506C2.11042 13.7748 1.68296 13.7369 1.27106 13.628C0.876454 13.4861 0.539111 13.219 0.310522 12.8675C0.081932 12.5159 -0.0253474 12.0992 0.00505823 11.681C0.0727907 11.2605 0.211786 10.8547 0.416058 10.481L1.69506 7.603C1.70029 7.59136 1.70301 7.57876 1.70306 7.566V5.413C1.70464 3.97874 2.27476 2.6036 3.28847 1.58895C4.30218 0.574301 5.6768 0.00291053 7.11106 0ZM11.6921 12.24C11.946 12.2497 12.2003 12.2414 12.4531 12.215C12.5382 12.1839 12.6108 12.1258 12.6599 12.0497C12.709 11.9735 12.7319 11.8834 12.7251 11.793C12.646 11.5533 12.5504 11.3194 12.4391 11.093L11.1661 8.212C11.0755 8.0087 11.0288 7.78857 11.0291 7.566V5.413C11.0374 4.89394 10.9423 4.37842 10.7494 3.89646C10.5565 3.4145 10.2696 2.97574 9.9055 2.60574C9.54136 2.23574 9.10725 1.9419 8.62844 1.74132C8.14962 1.54074 7.63568 1.43745 7.11656 1.43745C6.59743 1.43745 6.08349 1.54074 5.60468 1.74132C5.12587 1.9419 4.69175 2.23574 4.32762 2.60574C3.96349 2.97574 3.67662 3.4145 3.48372 3.89646C3.29083 4.37842 3.19576 4.89394 3.20406 5.413V7.566C3.20434 7.78857 3.15766 8.0087 3.06706 8.212L1.78706 11.089C1.6751 11.3173 1.57952 11.5532 1.50106 11.795C1.4949 11.8854 1.51843 11.9753 1.56806 12.0512C1.6177 12.127 1.69073 12.1845 1.77606 12.215C2.0282 12.2405 2.28181 12.2486 2.53506 12.239L11.6921 12.24Z" fill="url(#paint0_linear_313_3967)"/>
<g filter="url(#filter0_d_313_3967)">
<path d="M7.11106 0C8.54619 0.00158812 9.92208 0.572395 10.9369 1.58719C11.9517 2.60198 12.5225 3.97787 12.5241 5.413V7.566C12.5241 7.57876 12.5268 7.59136 12.5321 7.603L13.8111 10.48C14.0153 10.8537 14.1543 11.2595 14.2221 11.68C14.2529 12.0984 14.1458 12.5154 13.9171 12.8672C13.6885 13.219 13.3509 13.4862 12.9561 13.628C12.5442 13.7369 12.1167 13.7748 11.6921 13.74H2.53506C2.11042 13.7748 1.68296 13.7369 1.27106 13.628C0.876454 13.4861 0.539111 13.219 0.310522 12.8675C0.081932 12.5159 -0.0253474 12.0992 0.00505823 11.681C0.0727907 11.2605 0.211786 10.8547 0.416058 10.481L1.69506 7.603C1.70029 7.59136 1.70301 7.57876 1.70306 7.566V5.413C1.70464 3.97874 2.27476 2.6036 3.28847 1.58895C4.30218 0.574301 5.6768 0.00291053 7.11106 0ZM11.6921 12.24C11.946 12.2497 12.2003 12.2414 12.4531 12.215C12.5382 12.1839 12.6108 12.1258 12.6599 12.0497C12.709 11.9735 12.7319 11.8834 12.7251 11.793C12.646 11.5533 12.5504 11.3194 12.4391 11.093L11.1661 8.212C11.0755 8.0087 11.0288 7.78857 11.0291 7.566V5.413C11.0374 4.89394 10.9423 4.37842 10.7494 3.89646C10.5565 3.4145 10.2696 2.97574 9.9055 2.60574C9.54136 2.23574 9.10725 1.9419 8.62844 1.74132C8.14962 1.54074 7.63568 1.43745 7.11656 1.43745C6.59743 1.43745 6.08349 1.54074 5.60468 1.74132C5.12587 1.9419 4.69175 2.23574 4.32762 2.60574C3.96349 2.97574 3.67662 3.4145 3.48372 3.89646C3.29083 4.37842 3.19576 4.89394 3.20406 5.413V7.566C3.20434 7.78857 3.15766 8.0087 3.06706 8.212L1.78706 11.089C1.6751 11.3173 1.57952 11.5532 1.50106 11.795C1.4949 11.8854 1.51843 11.9753 1.56806 12.0512C1.6177 12.127 1.69073 12.1845 1.77606 12.215C2.0282 12.2405 2.28181 12.2486 2.53506 12.239L11.6921 12.24Z" fill=""/>
</g>
<path d="M7.11512 17.001C6.45961 17.0012 5.80673 16.9182 5.17212 16.754L4.59612 16.605C4.50078 16.5802 4.41125 16.5369 4.33264 16.4776C4.25403 16.4182 4.18788 16.344 4.13797 16.259C4.08806 16.1741 4.05536 16.0802 4.04175 15.9827C4.02813 15.8851 4.03386 15.7858 4.05862 15.6905C4.08337 15.5951 4.12666 15.5056 4.18602 15.427C4.24537 15.3484 4.31963 15.2822 4.40455 15.2323C4.57605 15.1315 4.78057 15.103 4.97312 15.153L5.54912 15.302C6.57688 15.5678 7.65536 15.5678 8.68312 15.302L9.25912 15.153C9.45167 15.103 9.65619 15.1315 9.82769 15.2323C9.99919 15.3331 10.1236 15.4979 10.1736 15.6905C10.2236 15.883 10.1951 16.0875 10.0943 16.259C9.99347 16.4306 9.82867 16.555 9.63612 16.605L9.06012 16.754C8.42486 16.9183 7.77129 17.0013 7.11512 17.001Z" fill="#A044FE"/>
<g filter="url(#filter1_d_313_3967)">
<path d="M7.11207 17C6.45656 17.0002 5.80368 16.9172 5.16907 16.753L4.59307 16.604C4.49773 16.5793 4.4082 16.536 4.32959 16.4766C4.25098 16.4173 4.18483 16.343 4.13492 16.2581C4.08501 16.1732 4.05231 16.0792 4.03869 15.9817C4.02508 15.8841 4.03081 15.7848 4.05557 15.6895C4.08032 15.5942 4.12361 15.5046 4.18297 15.426C4.24232 15.3474 4.31658 15.2813 4.4015 15.2314C4.573 15.1306 4.77752 15.102 4.97007 15.152L5.54607 15.301C6.57383 15.5668 7.6523 15.5668 8.68007 15.301L9.25607 15.152C9.44861 15.102 9.65313 15.1306 9.82464 15.2314C9.99614 15.3322 10.1206 15.497 10.1706 15.6895C10.2206 15.8821 10.192 16.0866 10.0912 16.2581C9.99041 16.4296 9.82561 16.554 9.63307 16.604L9.05707 16.753C8.42181 16.9174 7.76824 17.0004 7.11207 17Z" fill=""/>
</g>
</g>
<defs>
<filter id="filter0_d_313_3967" x="-6" y="-3" width="26.2273" height="25.7525" filterUnits="userSpaceOnUse" color-interpolation-filters="sRGB">
<feFlood flood-opacity="0" result="BackgroundImageFix"/>
<feColorMatrix in="SourceAlpha" type="matrix" values="0 0 0 0 0 0 0 0 0 0 0 0 0 0 0 0 0 0 127 0" result="hardAlpha"/>
<feOffset dy="3"/>
<feGaussianBlur stdDeviation="3"/>
<feColorMatrix type="matrix" values="0 0 0 0 0 0 0 0 0 0 0 0 0 0 0 0 0 0 0.102 0"/>
<feBlend mode="normal" in2="BackgroundImageFix" result="effect1_dropShadow_313_3967"/>
<feBlend mode="normal" in="SourceGraphic" in2="effect1_dropShadow_313_3967" result="shape"/>
</filter>
<filter id="filter1_d_313_3967" x="-1.96851" y="12.1279" width="18.1631" height="13.8721" filterUnits="userSpaceOnUse" color-interpolation-filters="sRGB">
<feFlood flood-opacity="0" result="BackgroundImageFix"/>
<feColorMatrix in="SourceAlpha" type="matrix" values="0 0 0 0 0 0 0 0 0 0 0 0 0 0 0 0 0 0 127 0" result="hardAlpha"/>
<feOffset dy="3"/>
<feGaussianBlur stdDeviation="3"/>
<feColorMatrix type="matrix" values="0 0 0 0 0 0 0 0 0 0 0 0 0 0 0 0 0 0 0.102 0"/>
<feBlend mode="normal" in2="BackgroundImageFix" result="effect1_dropShadow_313_3967"/>
<feBlend mode="normal" in="SourceGraphic" in2="effect1_dropShadow_313_3967" result="shape"/>
</filter>
<linearGradient id="paint0_linear_313_3967" x1="13.4732" y1="-2.88803" x2="-5.88625" y2="9.44337" gradientUnits="userSpaceOnUse">
<stop stop-color="#A044FE"/>
<stop offset="1" stop-color="#1C1955"/>
</linearGradient>
<clipPath id="clip0_313_3967">
<rect width="14.232" height="17.005" fill="white"/>
</clipPath>
</defs>
</svg>
