<svg width="21" height="22" viewBox="0 0 21 22" fill="none" xmlns="http://www.w3.org/2000/svg">
<path fill-rule="evenodd" clip-rule="evenodd" d="M8.75 3.51514H12.25C15.5496 3.51514 17.1999 3.51514 18.2245 4.54064C18.963 5.27826 19.1695 6.34051 19.2273 8.10889H1.77275C1.8305 6.34051 2.037 5.27826 2.7755 4.54064C3.80012 3.51514 5.45038 3.51514 8.75 3.51514ZM12.25 17.5151H8.75C5.45038 17.5151 3.80012 17.5151 2.7755 16.4896C1.75 15.465 1.75 13.8148 1.75 10.5151C1.75 10.1284 1.75 9.76439 1.75175 9.42139H19.2482C19.25 9.76439 19.25 10.1284 19.25 10.5151C19.25 13.8148 19.25 15.465 18.2245 16.4896C17.1999 17.5151 15.5496 17.5151 12.25 17.5151ZM5.25 13.3589C5.07595 13.3589 4.90903 13.428 4.78596 13.5511C4.66289 13.6742 4.59375 13.8411 4.59375 14.0151C4.59375 14.1892 4.66289 14.3561 4.78596 14.4792C4.90903 14.6022 5.07595 14.6714 5.25 14.6714H8.75C8.92405 14.6714 9.09097 14.6022 9.21404 14.4792C9.33711 14.3561 9.40625 14.1892 9.40625 14.0151C9.40625 13.8411 9.33711 13.6742 9.21404 13.5511C9.09097 13.428 8.92405 13.3589 8.75 13.3589H5.25ZM10.9375 13.3589C10.7635 13.3589 10.5965 13.428 10.4735 13.5511C10.3504 13.6742 10.2812 13.8411 10.2812 14.0151C10.2812 14.1892 10.3504 14.3561 10.4735 14.4792C10.5965 14.6022 10.7635 14.6714 10.9375 14.6714H12.25C12.424 14.6714 12.591 14.6022 12.714 14.4792C12.8371 14.3561 12.9062 14.1892 12.9062 14.0151C12.9062 13.8411 12.8371 13.6742 12.714 13.5511C12.591 13.428 12.424 13.3589 12.25 13.3589H10.9375Z" fill=""/>
</svg>
