<svg width="22" height="22" viewBox="0 0 22 22" fill="none" xmlns="http://www.w3.org/2000/svg">
<g opacity="1">
<path d="M17.6273 13.9883L15.299 13.7225C15.0252 13.6903 14.7477 13.7207 14.4873 13.8112C14.2269 13.9017 13.9904 14.05 13.7956 14.245L12.109 15.9317C9.50672 14.6082 7.39159 12.4931 6.06813 9.89083L7.76396 8.195C8.15813 7.80083 8.35063 7.25083 8.28646 6.69167L8.02063 4.38167C7.96866 3.9345 7.75405 3.52205 7.41768 3.22286C7.0813 2.92367 6.64664 2.75863 6.19646 2.75917H4.61063C3.57479 2.75917 2.71313 3.62083 2.77729 4.65667C3.26313 12.485 9.52396 18.7367 17.3431 19.2225C18.379 19.2867 19.2406 18.425 19.2406 17.3892V15.8033C19.2498 14.8775 18.5531 14.0983 17.6273 13.9883Z" fill=""/>
</g>
</svg>
