<svg width="27" height="27" viewBox="0 0 27 27" fill="none" xmlns="http://www.w3.org/2000/svg">
<path d="M4.12139 23.2104C2.832 21.9651 1.80354 20.4754 1.09602 18.8284C0.3885 17.1813 0.0160862 15.4098 0.000509716 13.6173C-0.0150668 11.8248 0.326506 10.0471 1.0053 8.38801C1.68409 6.72891 2.68651 5.22161 3.95406 3.95406C5.22161 2.68651 6.72891 1.68409 8.38801 1.0053C10.0471 0.326506 11.8248 -0.0150668 13.6173 0.000509716C15.4098 0.0160862 17.1813 0.3885 18.8284 1.09602C20.4754 1.80354 21.9651 2.832 23.2104 4.12139C25.6695 6.66752 27.0302 10.0777 26.9995 13.6173C26.9687 17.157 25.549 20.5429 23.0459 23.0459C20.5429 25.549 17.157 26.9687 13.6173 26.9995C10.0777 27.0302 6.66752 25.6695 4.12139 23.2104ZM15.5559 13.6659L19.3764 9.84539L17.4729 7.94189L13.6659 11.7624L9.84539 7.94189L7.94189 9.84539L11.7624 13.6659L7.94189 17.4864L9.84539 19.3899L13.6659 15.5694L17.4864 19.3899L19.3899 17.4864L15.5694 13.6659H15.5559Z" fill="#F13E3E"/>
</svg>
