<svg width="20" height="20" viewBox="0 0 20 20" fill="none" xmlns="http://www.w3.org/2000/svg">
<path d="M10.0107 7.40684C9.36834 7.40684 8.76678 7.65605 8.31131 8.11152C7.85799 8.56699 7.60662 9.16855 7.60662 9.81094C7.60662 10.4533 7.85799 11.0549 8.31131 11.5104C8.76678 11.9637 9.36834 12.215 10.0107 12.215C10.6531 12.215 11.2547 11.9637 11.7101 11.5104C12.1635 11.0549 12.4148 10.4533 12.4148 9.81094C12.4148 9.16855 12.1635 8.56699 11.7101 8.11152C11.4877 7.88735 11.2229 7.70961 10.9311 7.58864C10.6394 7.46767 10.3265 7.40587 10.0107 7.40684ZM18.8687 12.4664L17.4637 11.2654C17.5303 10.8572 17.5646 10.4404 17.5646 10.0258C17.5646 9.61113 17.5303 9.19219 17.4637 8.78613L18.8687 7.58516C18.9749 7.49429 19.0508 7.37327 19.0865 7.23818C19.1222 7.10309 19.1159 6.96034 19.0685 6.82891L19.0492 6.77305C18.6625 5.69172 18.0831 4.6894 17.339 3.81465L17.3004 3.76953C17.21 3.6633 17.0896 3.58693 16.955 3.55049C16.8204 3.51406 16.6779 3.51927 16.5463 3.56543L14.8017 4.18633C14.1572 3.65781 13.4396 3.24102 12.6619 2.95098L12.3246 1.12695C12.2991 0.989544 12.2325 0.86313 12.1335 0.764507C12.0345 0.665884 11.9078 0.599719 11.7703 0.574805L11.7123 0.564062C10.5951 0.362109 9.41775 0.362109 8.30057 0.564062L8.24256 0.574805C8.10505 0.599719 7.97838 0.665884 7.87937 0.764507C7.78036 0.86313 7.71371 0.989544 7.68826 1.12695L7.34881 2.95957C6.57844 3.25192 5.86079 3.66771 5.224 4.19062L3.46658 3.56543C3.33502 3.5189 3.19242 3.5135 3.05772 3.54996C2.92303 3.58642 2.80261 3.663 2.71248 3.76953L2.67381 3.81465C1.93108 4.69033 1.35181 5.6924 0.963652 6.77305L0.944316 6.82891C0.847636 7.09746 0.927128 7.39824 1.14412 7.58516L2.56639 8.79902C2.49978 9.20293 2.46756 9.61543 2.46756 10.0236C2.46756 10.4361 2.49978 10.8486 2.56639 11.2482L1.14842 12.4621C1.04228 12.553 0.966308 12.674 0.930617 12.8091C0.894926 12.9442 0.901203 13.0869 0.948613 13.2184L0.967949 13.2742C1.35682 14.3549 1.93045 15.3539 2.6781 16.2326L2.71678 16.2777C2.80713 16.384 2.92755 16.4603 3.06216 16.4968C3.19678 16.5332 3.33928 16.528 3.47088 16.4818L5.2283 15.8566C5.86853 16.383 6.58182 16.7998 7.3531 17.0877L7.69256 18.9203C7.71801 19.0577 7.78466 19.1841 7.88367 19.2828C7.98268 19.3814 8.10935 19.4475 8.24685 19.4725L8.30486 19.4832C9.43304 19.6862 10.5884 19.6862 11.7166 19.4832L11.7746 19.4725C11.9121 19.4475 12.0388 19.3814 12.1378 19.2828C12.2368 19.1841 12.3034 19.0577 12.3289 18.9203L12.6662 17.0963C13.4439 16.8041 14.1615 16.3895 14.806 15.8609L16.5506 16.4818C16.6821 16.5284 16.8247 16.5338 16.9594 16.4973C17.0941 16.4608 17.2145 16.3843 17.3047 16.2777L17.3433 16.2326C18.091 15.3496 18.6646 14.3549 19.0535 13.2742L19.0728 13.2184C19.1652 12.952 19.0857 12.6533 18.8687 12.4664ZM10.0107 13.5879C7.92459 13.5879 6.23377 11.8971 6.23377 9.81094C6.23377 7.7248 7.92459 6.03398 10.0107 6.03398C12.0969 6.03398 13.7877 7.7248 13.7877 9.81094C13.7877 11.8971 12.0969 13.5879 10.0107 13.5879Z" fill=""/>
</svg>
