<svg width="20" height="20" viewBox="0 0 20 20" fill="none" xmlns="http://www.w3.org/2000/svg">
<path fill-rule="evenodd" clip-rule="evenodd" d="M6.3115 3.61333C6.53978 3.27089 6.84907 2.9901 7.21192 2.79588C7.57476 2.60166 7.97995 2.50003 8.3915 2.5H11.6082C12.0197 2.50003 12.4249 2.60166 12.7878 2.79588C13.1506 2.9901 13.4599 3.27089 13.6882 3.61333L14.3648 4.62917C14.441 4.74326 14.5441 4.83681 14.665 4.9015C14.786 4.96619 14.921 5.00002 15.0582 5H15.8332C16.4962 5 17.1321 5.26339 17.6009 5.73223C18.0698 6.20107 18.3332 6.83696 18.3332 7.5V15C18.3332 15.663 18.0698 16.2989 17.6009 16.7678C17.1321 17.2366 16.4962 17.5 15.8332 17.5H4.1665C3.50346 17.5 2.86758 17.2366 2.39874 16.7678C1.9299 16.2989 1.6665 15.663 1.6665 15V7.5C1.6665 6.83696 1.9299 6.20107 2.39874 5.73223C2.86758 5.26339 3.50346 5 4.1665 5H4.9415C5.07866 5.00002 5.21371 4.96619 5.33466 4.9015C5.4556 4.83681 5.55871 4.74326 5.63484 4.62917L6.3115 3.61333ZM8.33317 10.8333C8.33317 10.3913 8.50877 9.96738 8.82133 9.65482C9.13389 9.34226 9.55781 9.16667 9.99984 9.16667C10.4419 9.16667 10.8658 9.34226 11.1783 9.65482C11.4909 9.96738 11.6665 10.3913 11.6665 10.8333C11.6665 11.2754 11.4909 11.6993 11.1783 12.0118C10.8658 12.3244 10.4419 12.5 9.99984 12.5C9.55781 12.5 9.13389 12.3244 8.82133 12.0118C8.50877 11.6993 8.33317 11.2754 8.33317 10.8333ZM9.99984 7.5C9.11578 7.5 8.26794 7.85119 7.64281 8.47631C7.01769 9.10143 6.6665 9.94928 6.6665 10.8333C6.6665 11.7174 7.01769 12.5652 7.64281 13.1904C8.26794 13.8155 9.11578 14.1667 9.99984 14.1667C10.8839 14.1667 11.7317 13.8155 12.3569 13.1904C12.982 12.5652 13.3332 11.7174 13.3332 10.8333C13.3332 9.94928 12.982 9.10143 12.3569 8.47631C11.7317 7.85119 10.8839 7.5 9.99984 7.5Z" fill=""/>
</svg>
