<svg width="23" height="23" viewBox="0 0 18 18" fill="none" xmlns="http://www.w3.org/2000/svg">
<path d="M16.5 4.18418C13.725 3.92018 10.9333 3.78418 8.15 3.78418C6.5 3.78418 4.85 3.86418 3.2 4.02418L1.5 4.18418" stroke="#EB4040"  fill="#EB4040" stroke-width="1.5" stroke-linecap="round" stroke-linejoin="round"/>
<path d="M6.0835 3.37598L6.26683 2.32799C6.40016 1.568 6.50016 1 7.9085 1H10.0918C11.5002 1 11.6085 1.6 11.7335 2.33599L11.9168 3.37598" fill="#EB4040" stroke="#EB4040" stroke-width="1.5" stroke-linecap="round" stroke-linejoin="round"/>
<path d="M14.7082 6.71191L14.1665 14.7679C14.0748 16.0238 13.9998 16.9998 11.6748 16.9998H6.32484C3.99984 16.9998 3.92484 16.0238 3.83317 14.7679L3.2915 6.71191" fill="#EB4040" stroke="#EB4040" stroke-width="1.5" stroke-linecap="round" stroke-linejoin="round"/>
<path d="M7.6084 12.6001H10.3834" fill="#EB4040" stroke="#EB4040" stroke-width="1.5" stroke-linecap="round" stroke-linejoin="round"/>
<path d="M6.9165 9.3999H11.0832" stroke="#EB4040" fill="#EB4040" stroke-width="1.5" stroke-linecap="round" stroke-linejoin="round"/>
</svg>

