<svg width="24" height="24" viewBox="0 0 16 16" fill="none" xmlns="http://www.w3.org/2000/svg">
<g clip-path="url(#clip0_3_2)">
<path d="M12 5.33333C12 5.68696 11.8595 6.02609 11.6095 6.27614C11.3594 6.52619 11.0203 6.66667 10.6667 6.66667C10.313 6.66667 9.97391 6.52619 9.72386 6.27614C9.47381 6.02609 9.33334 5.68696 9.33334 5.33333C9.33334 4.97971 9.47381 4.64057 9.72386 4.39052C9.97391 4.14048 10.313 4 10.6667 4C11.0203 4 11.3594 4.14048 11.6095 4.39052C11.8595 4.64057 12 4.97971 12 5.33333Z" fill=""/>
<path fill-rule="evenodd" clip-rule="evenodd" d="M7.962 0.833332H8.038C9.57734 0.833332 10.7833 0.833332 11.7247 0.959999C12.6873 1.08933 13.4473 1.36 14.044 1.956C14.6407 2.55267 14.9107 3.31267 15.04 4.276C15.1667 5.21667 15.1667 6.42267 15.1667 7.962V8.02067C15.1667 9.29333 15.1667 10.3347 15.0973 11.1827C15.028 12.036 14.886 12.7473 14.5673 13.3393C14.4273 13.6 14.254 13.834 14.044 14.044C13.4473 14.6407 12.6873 14.9107 11.724 15.04C10.7833 15.1667 9.57734 15.1667 8.038 15.1667H7.962C6.42267 15.1667 5.21667 15.1667 4.27534 15.04C3.31267 14.9107 2.55267 14.64 1.956 14.044C1.42734 13.5153 1.154 12.8573 1.00934 12.04C0.866003 11.238 0.840003 10.24 0.834669 9.00133C0.833336 8.686 0.833336 8.35267 0.833336 8.00067V7.962C0.833336 6.42267 0.833336 5.21667 0.960003 4.27533C1.08934 3.31267 1.36 2.55267 1.956 1.956C2.55267 1.35933 3.31267 1.08933 4.276 0.959999C5.21667 0.833332 6.42267 0.833332 7.962 0.833332ZM4.40867 1.95067C3.55667 2.06533 3.04267 2.284 2.66334 2.66333C2.28334 3.04333 2.06534 3.55667 1.95067 4.40933C1.83467 5.276 1.83334 6.41467 1.83334 8V8.56267L2.50067 7.978C2.79347 7.72185 3.17268 7.58658 3.56149 7.59957C3.9503 7.61257 4.31963 7.77287 4.59467 8.048L7.45467 10.908C7.67661 11.1299 7.9697 11.2664 8.28237 11.2935C8.59504 11.3205 8.90723 11.2364 9.164 11.056L9.36267 10.916C9.73313 10.6557 10.1809 10.5288 10.6329 10.556C11.0848 10.5833 11.5142 10.7631 11.8507 11.066L13.7373 12.764C13.928 12.3653 14.0407 11.8413 14.1007 11.102C14.166 10.2987 14.1667 9.29733 14.1667 8C14.1667 6.41467 14.1653 5.276 14.0493 4.40933C13.9347 3.55667 13.716 3.04267 13.3367 2.66267C12.9567 2.28333 12.4433 2.06533 11.5907 1.95067C10.724 1.83467 9.58534 1.83333 8 1.83333C6.41467 1.83333 5.27534 1.83467 4.40867 1.95067Z" fill=""/>
</g>
<defs>
<clipPath id="clip0_3_2">
<rect width="16" height="16" fill="white"/>
</clipPath>
</defs>
</svg>
