<svg width="25" height="24" viewBox="0 0 25 24" fill="none" xmlns="http://www.w3.org/2000/svg">
<path d="M21.0857 7V19C21.0857 19.55 20.8897 20.021 20.4977 20.413C20.1057 20.805 19.635 21.0007 19.0857 21H5.08566C4.53566 21 4.06466 20.804 3.67266 20.412C3.28066 20.02 3.085 19.5493 3.08566 19V5C3.08566 4.45 3.28166 3.979 3.67366 3.587C4.06566 3.195 4.53633 2.99934 5.08566 3H17.0857L21.0857 7ZM12.0857 18C12.919 18 13.6273 17.7083 14.2107 17.125C14.794 16.5417 15.0857 15.8333 15.0857 15C15.0857 14.1667 14.794 13.4583 14.2107 12.875C13.6273 12.2917 12.919 12 12.0857 12C11.2523 12 10.544 12.2917 9.96066 12.875C9.37733 13.4583 9.08566 14.1667 9.08566 15C9.08566 15.8333 9.37733 16.5417 9.96066 17.125C10.544 17.7083 11.2523 18 12.0857 18ZM6.08566 10H15.0857V6H6.08566V10Z" fill="#368904"/>
</svg>
